<svg width="116" height="116" viewBox="0 0 116 116" fill="none" xmlns="http://www.w3.org/2000/svg">
<path d="M115.074 54.9534C111.324 51.2049 106.239 49.0991 100.937 49.0991C95.6343 49.0991 90.5492 51.2049 86.7992 54.9534L79.3646 62.3881C79.3541 59.5935 78.2367 56.9168 76.257 54.9443C74.2774 52.9718 71.5967 51.8641 68.8021 51.8638H40.9052C39.716 51.8606 38.5381 52.0932 37.4394 52.5483C36.3408 53.0035 35.3434 53.672 34.505 54.5152L17.4163 71.6076L14.9055 69.0981C14.5005 68.6934 13.9513 68.466 13.3786 68.466C12.806 68.466 12.2568 68.6934 11.8517 69.0981L0.926253 80.0236C0.725494 80.2241 0.566228 80.4622 0.457564 80.7243C0.348899 80.9864 0.292969 81.2674 0.292969 81.5511C0.292969 81.8349 0.348899 82.1158 0.457564 82.3779C0.566228 82.64 0.725494 82.8782 0.926253 83.0787L32.9212 115.074C33.1218 115.274 33.3599 115.434 33.622 115.542C33.8841 115.651 34.1651 115.707 34.4488 115.707C34.7325 115.707 35.0135 115.651 35.2756 115.542C35.5377 115.434 35.7758 115.274 35.9763 115.074L46.9018 104.148C47.3066 103.743 47.5339 103.194 47.5339 102.621C47.5339 102.049 47.3066 101.499 46.9018 101.094L44.9947 99.1873L52.5453 91.6366C52.8025 91.3786 53.1083 91.1741 53.4449 91.0349C53.7816 90.8957 54.1425 90.8246 54.5068 90.8256H77.5032C79.012 90.8295 80.5067 90.5341 81.9007 89.9566C83.2946 89.379 84.5602 88.5307 85.6241 87.4607L115.076 58.0085C115.277 57.8079 115.436 57.5696 115.544 57.3074C115.653 57.0452 115.709 56.7642 115.708 56.4805C115.708 56.1967 115.652 55.9158 115.543 55.6538C115.434 55.3918 115.275 55.1538 115.074 54.9534ZM34.4482 110.492L5.50825 81.5518L13.3786 73.6764L42.3235 102.621L34.4482 110.492ZM82.5641 84.4056C81.2187 85.7433 79.4004 86.4972 77.5032 86.5041H54.5068C53.5747 86.5013 52.6515 86.6836 51.7904 87.0402C50.9293 87.3968 50.1475 87.9207 49.4903 88.5815L41.9433 96.1297L20.5034 74.6306L37.5637 57.5691C38.0022 57.1287 38.5235 56.7795 39.0977 56.5418C39.6719 56.3041 40.2875 56.1825 40.9089 56.1841H68.8058C69.678 56.1841 70.5405 56.3669 71.3378 56.7205C72.1351 57.0742 72.8494 57.591 73.4348 58.2375C74.0202 58.8841 74.4637 59.6461 74.7366 60.4745C75.0096 61.3029 75.106 62.1793 75.0196 63.0472C74.8066 64.629 74.0184 66.077 72.8054 67.1144C71.5924 68.1518 70.0398 68.706 68.4441 68.671H54.8154C54.2424 68.671 53.693 68.8986 53.2879 69.3037C52.8828 69.7089 52.6552 70.2583 52.6552 70.8312C52.6552 71.4041 52.8828 71.9536 53.2879 72.3587C53.693 72.7638 54.2424 72.9914 54.8154 72.9914H73.9753C74.5485 72.9911 75.0981 72.7634 75.5035 72.3581L89.8543 58.0085C92.5293 55.3338 96.0812 53.7165 99.8549 53.4549C103.629 53.1933 107.37 54.3051 110.388 56.5853L82.5641 84.4056Z" fill="#181C31"/>
<path d="M37.5344 33.6826H70.3959L82.3694 40.6939C82.6977 40.8856 83.0708 40.9873 83.451 40.9888C83.8312 40.9903 84.205 40.8914 84.5348 40.7022C84.8646 40.5131 85.1386 40.2402 85.3293 39.9113C85.52 39.5823 85.6205 39.2089 85.6207 38.8287V26.8442C85.6207 26.7936 85.6207 26.743 85.6207 26.6924C85.6207 26.6417 85.6207 26.5763 85.6207 26.5183V7.51387C85.6181 5.61589 84.863 3.79639 83.5209 2.45431C82.1788 1.11223 80.3593 0.357105 78.4613 0.354492H37.5344C35.6363 0.356779 33.8166 1.1118 32.4745 2.45395C31.1323 3.7961 30.3773 5.61579 30.375 7.51387V26.5232C30.3773 28.4213 31.1323 30.241 32.4745 31.5832C33.8166 32.9253 35.6363 33.6803 37.5344 33.6826ZM34.6953 7.51387C34.6953 6.7609 34.9944 6.03877 35.5269 5.50635C36.0593 4.97392 36.7814 4.6748 37.5344 4.6748H78.4663C79.2192 4.6748 79.9414 4.97392 80.4738 5.50635C81.0062 6.03877 81.3053 6.7609 81.3053 7.51387V26.4294C81.293 26.5208 81.2819 26.6109 81.2757 26.7022C81.2651 26.8707 81.275 27.0398 81.3053 27.2059V35.0589L72.0722 29.6549C71.7419 29.4603 71.3655 29.358 70.9822 29.3586H37.5344C36.7814 29.3586 36.0593 29.0595 35.5269 28.5271C34.9944 27.9946 34.6953 27.2725 34.6953 26.5195V7.51387Z" fill="#181C31"/>
<path d="M58.5391 20.043C59.302 20.043 60.0478 19.8167 60.6821 19.3929C61.3165 18.969 61.8109 18.3666 62.1029 17.6617C62.3948 16.9569 62.4712 16.1813 62.3224 15.433C62.1735 14.6847 61.8061 13.9974 61.2667 13.4579C60.7272 12.9185 60.0399 12.5511 59.2916 12.4022C58.5433 12.2534 57.7677 12.3298 57.0629 12.6218C56.358 12.9137 55.7556 13.4081 55.3317 14.0425C54.9079 14.6768 54.6816 15.4226 54.6816 16.1856C54.6829 17.2082 55.0898 18.1886 55.8129 18.9117C56.536 19.6348 57.5164 20.0417 58.5391 20.043ZM58.5391 15.7227C58.6306 15.7227 58.7201 15.7498 58.7962 15.8007C58.8724 15.8515 58.9317 15.9238 58.9667 16.0084C59.0018 16.093 59.0109 16.1861 58.9931 16.2759C58.9752 16.3656 58.9311 16.4481 58.8664 16.5129C58.8016 16.5776 58.7192 16.6217 58.6294 16.6395C58.5396 16.6574 58.4465 16.6482 58.3619 16.6132C58.2773 16.5782 58.2051 16.5188 58.1542 16.4427C58.1033 16.3666 58.0762 16.2771 58.0762 16.1856C58.0762 16.0628 58.1249 15.945 58.2118 15.8582C58.2986 15.7714 58.4163 15.7227 58.5391 15.7227Z" fill="#181C31"/>
<path d="M70.8066 20.043C71.5696 20.043 72.3154 19.8167 72.9497 19.3929C73.5841 18.969 74.0785 18.3666 74.3704 17.6617C74.6624 16.9569 74.7388 16.1813 74.59 15.433C74.4411 14.6847 74.0737 13.9974 73.5343 13.4579C72.9948 12.9185 72.3075 12.5511 71.5592 12.4022C70.8109 12.2534 70.0353 12.3298 69.3305 12.6218C68.6256 12.9137 68.0232 13.4081 67.5993 14.0425C67.1755 14.6768 66.9492 15.4226 66.9492 16.1856C66.9505 17.2082 67.3573 18.1886 68.0805 18.9117C68.8036 19.6348 69.784 20.0417 70.8066 20.043ZM70.8066 15.7227C70.8982 15.7227 70.9877 15.7498 71.0638 15.8007C71.1399 15.8515 71.1993 15.9238 71.2343 16.0084C71.2693 16.093 71.2785 16.1861 71.2606 16.2759C71.2428 16.3656 71.1987 16.4481 71.134 16.5129C71.0692 16.5776 70.9867 16.6217 70.897 16.6395C70.8072 16.6574 70.7141 16.6482 70.6295 16.6132C70.5449 16.5782 70.4726 16.5188 70.4218 16.4427C70.3709 16.3666 70.3438 16.2771 70.3438 16.1856C70.3438 16.0628 70.3925 15.945 70.4793 15.8582C70.5661 15.7714 70.6839 15.7227 70.8066 15.7227Z" fill="#181C31"/>
<path d="M46.2734 20.043C47.0364 20.043 47.7822 19.8167 48.4165 19.3929C49.0509 18.969 49.5453 18.3666 49.8372 17.6617C50.1292 16.9569 50.2056 16.1813 50.0567 15.433C49.9079 14.6847 49.5405 13.9974 49.001 13.4579C48.4616 12.9185 47.7742 12.5511 47.026 12.4022C46.2777 12.2534 45.5021 12.3298 44.7973 12.6218C44.0924 12.9137 43.49 13.4081 43.0661 14.0425C42.6422 14.6768 42.416 15.4226 42.416 16.1856C42.4173 17.2082 42.8241 18.1886 43.5473 18.9117C44.2704 19.6348 45.2508 20.0417 46.2734 20.043ZM46.2734 15.7227C46.365 15.7227 46.4545 15.7498 46.5306 15.8007C46.6067 15.8515 46.6661 15.9238 46.7011 16.0084C46.7361 16.093 46.7453 16.1861 46.7274 16.2759C46.7096 16.3656 46.6655 16.4481 46.6007 16.5129C46.536 16.5776 46.4535 16.6217 46.3637 16.6395C46.2739 16.6574 46.1809 16.6482 46.0963 16.6132C46.0117 16.5782 45.9394 16.5188 45.8886 16.4427C45.8377 16.3666 45.8105 16.2771 45.8105 16.1856C45.8105 16.0628 45.8593 15.945 45.9461 15.8582C46.0329 15.7714 46.1507 15.7227 46.2734 15.7227Z" fill="#181C31"/>
</svg>
