<svg width="118" height="114" viewBox="0 0 118 114" fill="none" xmlns="http://www.w3.org/2000/svg">
<path fill-rule="evenodd" clip-rule="evenodd" d="M117.828 60.9564C116.33 73.932 105.411 83.718 92.4346 83.7134H80.6347V91.6326H100.301C101.387 91.6326 102.268 92.519 102.268 93.6124V101.896C104.977 102.86 106.602 105.649 106.116 108.5C105.63 111.351 103.175 113.435 100.301 113.435C97.4277 113.435 94.9721 111.351 94.4862 108.5C94.0003 105.649 95.6254 102.86 98.3345 101.896V95.5922H78.668C77.5819 95.5922 76.7014 94.7058 76.7014 93.6124V83.7134H60.9682V101.896C63.6774 102.86 65.3025 105.649 64.8166 108.5C64.3306 111.351 61.8751 113.435 59.0016 113.435C56.1281 113.435 53.6725 111.351 53.1866 108.5C52.7007 105.649 54.3258 102.86 57.0349 101.896V83.7134H41.3018V93.6124C41.3018 94.7058 40.4213 95.5922 39.3351 95.5922H19.6687V101.896C22.3778 102.86 24.0029 105.649 23.517 108.5C23.0311 111.351 20.5755 113.435 17.702 113.435C14.8285 113.435 12.373 111.351 11.887 108.5C11.4011 105.649 13.0262 102.86 15.7354 101.896V93.6124C15.7354 92.519 16.6159 91.6326 17.702 91.6326H37.3685V83.7134H25.5686C12.5728 83.7207 1.6415 73.9071 0.16675 60.9089C-1.308 47.9106 7.14355 35.8684 19.8063 32.9255C19.7139 31.991 19.6687 31.11 19.6687 30.2587C19.6715 16.9325 28.4921 5.24001 41.243 1.65981C53.9939 -1.92039 67.5526 3.4885 74.4063 14.8895C80.013 13.6368 85.8834 14.9139 90.4759 18.3854C95.0685 21.8568 97.9242 27.1757 98.2932 32.9453C110.925 35.9354 119.325 47.9808 117.828 60.9564ZM15.7345 107.471C15.7345 108.564 16.615 109.451 17.7011 109.451C18.7873 109.451 19.6678 108.564 19.6678 107.471C19.6678 106.378 18.7873 105.491 17.7011 105.491C16.615 105.491 15.7345 106.378 15.7345 107.471ZM59.0027 109.451C57.9165 109.451 57.036 108.564 57.036 107.471C57.036 106.378 57.9165 105.491 59.0027 105.491C60.0888 105.491 60.9693 106.378 60.9693 107.471C60.9693 108.564 60.0888 109.451 59.0027 109.451ZM98.335 107.471C98.335 108.564 99.2155 109.451 100.302 109.451C101.388 109.451 102.268 108.564 102.268 107.471C102.268 106.378 101.388 105.491 100.302 105.491C99.2155 105.491 98.335 106.378 98.335 107.471ZM60.9685 79.7536V71.4701C63.6776 70.5058 65.3027 67.717 64.8168 64.866C64.3309 62.0149 61.8753 59.9309 59.0018 59.9309C56.1284 59.9309 53.6728 62.0149 53.1869 64.866C52.701 67.717 54.326 70.5058 57.0352 71.4701V79.7536H41.302V71.4701C44.0112 70.5058 45.6363 67.717 45.1504 64.866C44.6644 62.0149 42.2089 59.9309 39.3354 59.9309C36.4619 59.9309 34.0063 62.0149 33.5204 64.866C33.0345 67.717 34.6596 70.5058 37.3687 71.4701V79.7536H25.5689C14.2569 79.7681 4.84658 71.0011 3.98641 59.6464C3.12624 48.2917 11.1071 38.1895 22.2905 36.4771C22.8068 36.398 23.2707 36.1155 23.5799 35.6917C23.8891 35.2679 24.0181 34.7377 23.9385 34.2181C22.0115 21.8216 29.252 9.83465 41.072 5.85329C52.8919 1.87193 65.8404 7.05846 71.7123 18.1263C72.1563 18.9625 73.1271 19.3643 74.027 19.0845C78.8082 17.5985 84.0064 18.4906 88.0284 21.4874C92.0504 24.4842 94.4165 29.2283 94.4015 34.2656C94.4015 34.285 94.3978 34.3477 94.3943 34.4087C94.391 34.4663 94.3877 34.5225 94.3877 34.5388C94.3744 35.5164 95.072 36.3574 96.0298 36.5186C107.142 38.3728 114.978 48.5054 114.039 59.8051C113.099 71.1049 103.699 79.785 92.4348 79.7536H80.6349V71.4701C83.3441 70.5058 84.9692 67.717 84.4833 64.866C83.9974 62.0149 81.5418 59.9309 78.6683 59.9309C75.7948 59.9309 73.3392 62.0149 72.8533 64.866C72.3674 67.717 73.9925 70.5058 76.7017 71.4701V79.7536H60.9685ZM59.0027 63.9153C57.9165 63.9153 57.036 64.8017 57.036 65.8951C57.036 66.9885 57.9165 67.8749 59.0027 67.8749C60.0888 67.8749 60.9693 66.9885 60.9693 65.8951C60.9693 64.8017 60.0888 63.9153 59.0027 63.9153ZM37.3685 65.8951C37.3685 64.8017 38.249 63.9153 39.3351 63.9153C40.4213 63.9153 41.3018 64.8017 41.3018 65.8951C41.3018 66.9885 40.4213 67.8749 39.3351 67.8749C38.249 67.8749 37.3685 66.9885 37.3685 65.8951ZM78.6676 63.9153C77.5815 63.9153 76.701 64.8017 76.701 65.8951C76.701 66.9885 77.5815 67.8749 78.6676 67.8749C79.7538 67.8749 80.6343 66.9885 80.6343 65.8951C80.6343 64.8017 79.7538 63.9153 78.6676 63.9153Z" fill="#181C31"/>
<path d="M29.5 30.0653H33.3478C33.3574 21.5689 40.2427 14.6835 48.7391 14.674V10.8262C38.1185 10.8378 29.5117 19.4447 29.5 30.0653H29.5Z" fill="#181C31"/>
<path d="M107.739 58.2827H103.891C103.885 64.6554 98.7203 69.8198 92.3477 69.8262V73.674C100.844 73.6645 107.729 66.7791 107.739 58.2827Z" fill="#181C31"/>
</svg>
