<svg width="118" height="118" viewBox="0 0 118 118" fill="none" xmlns="http://www.w3.org/2000/svg">
<path fill-rule="evenodd" clip-rule="evenodd" d="M75.9855 4.48652C46.333 -9.47595 11.263 10.8323 10.9632 42.1775L0.599339 64.336C-1.11444 68.0063 1.0043 72.3199 4.9552 73.2075L12.4629 74.8991C12.9643 78.1667 13.1287 81.1091 13.2787 83.7927C13.6432 90.3152 13.9222 95.3091 18.7473 99.7278C23.3521 103.944 28.5134 103.844 30.2382 103.811C30.5037 103.806 30.6878 103.802 30.7759 103.816V118H34.2371V103.816H54.6585V100.357H29.2691C22.9424 100.357 17.7544 95.6063 17.2013 89.3069L15.6901 72.0805C12.4315 71.2332 10.1142 70.775 8.43416 70.4428C5.37424 69.8378 4.42856 69.6508 3.76061 68.2921C3.09155 66.9303 3.28967 66.5227 5.99839 60.9501C7.69162 57.4666 10.3659 51.9649 14.4226 42.9501V42.5659C14.4226 14.3206 45.4564 -4.61746 72.8688 6.8852C72.5222 7.194 72.1821 7.51226 71.8491 7.84043C69.5704 10.0864 67.7397 12.6616 66.4011 15.4601L65.6733 13.4131H53.7969L50.8398 21.7286L49.4758 22.2933L49.473 22.2945L49.4627 22.2988L49.4582 22.3006L49.4531 22.3027C48.1407 22.8461 46.966 23.3325 45.3943 23.982L37.4189 20.1948L29.0236 28.5854L32.8127 36.5562L30.558 41.999L22.2381 44.9544V56.8242L30.558 59.7797L32.8127 65.2225L29.0236 73.1932L37.4189 81.5839L45.3941 77.7969L50.84 80.0503L53.7971 88.3655H65.6735L68.6306 80.05L70.0019 79.4823C71.3205 78.9364 72.4982 78.4488 74.0761 77.7967L82.0515 81.5839L84.8989 78.7383C85.8512 79.3616 86.9053 79.8409 88.0313 80.1448C86.5942 82.2471 85.6455 83.4094 82.4291 87.3495L82.429 87.3496L82.4285 87.3502C80.587 89.6061 78.0023 92.7724 74.1573 97.5468V118H77.6185V98.7728C80.794 94.8025 83.1178 91.9669 84.9206 89.7671L84.9207 89.767L84.9208 89.7668L84.921 89.7666C88.4278 85.4876 89.9635 83.6136 91.9624 80.4709C96.9999 79.9781 101.046 76.0626 101.74 71.0884C104.455 70.3698 106.462 67.8938 106.462 64.9573V49.3169C113.666 44.2605 117.961 36.0834 118 27.2559C118.094 5.55037 93.7682 -7.25761 75.9855 4.48652ZM75.3105 49.3161V50.8887C75.3105 59.4724 68.3234 66.4556 59.7349 66.4556C51.1464 66.4556 44.1593 59.4724 44.1593 50.8887C44.1593 42.305 51.1464 35.3218 59.7349 35.3218C61.6981 35.3218 63.5984 35.6802 65.3954 36.3845C67.2657 41.5435 70.6858 46.0705 75.3105 49.3161ZM74.174 74.0122L81.3312 77.4111L82.334 76.4086C81.1291 74.9065 80.312 73.0826 80.0337 71.0875C77.3185 70.3689 75.3109 67.8929 75.3109 64.9564V61.8075C71.8633 66.7052 66.1689 69.9148 59.7353 69.9148C49.2385 69.9148 40.6985 61.3795 40.6985 50.8885C40.6985 40.3976 49.2385 31.8624 59.7353 31.8624C61.2903 31.8624 62.8128 32.0519 64.2917 32.4158C63.9518 30.6956 63.7734 28.9289 63.7734 27.1346C63.7734 24.9057 64.0416 22.7199 64.5601 20.6118L63.2305 16.872H56.2404L53.5861 24.3354C47.7062 26.7696 47.0436 27.0432 46.2093 27.3877L46.2091 27.3878L45.2968 27.7647L38.1397 24.3658L33.1979 29.3048L36.599 36.4584L33.1677 44.7425L25.6997 47.3953V54.3815L33.1677 57.0344L36.599 65.3185L33.1979 72.4721L38.1397 77.4111L45.2973 74.012L53.5861 77.4413L56.2404 84.9051H63.2305L65.8848 77.4416L74.174 74.0122ZM90.8872 77.0643C87.3477 77.0643 84.3752 74.6002 83.5915 71.2988H98.1825C97.3991 74.6002 94.4266 77.0643 90.8872 77.0643ZM100.116 67.8393C101.706 67.8393 103 66.5462 103 64.9566V64.1494H78.7713V64.9566C78.7713 66.5462 80.0651 67.8393 81.6557 67.8393H100.116ZM103 60.6903H78.7713V57.231H103V60.6903ZM78.7713 53.7714H103V50.3121H78.7713V53.7714ZM83.3868 30.7094H80.5024C76.6849 30.7094 76.6895 24.9439 80.5024 24.9439C82.093 24.9439 83.3868 26.237 83.3868 27.8267V30.7094ZM86.8475 34.1688V46.853H94.9238V34.1688H86.8475ZM103.93 46.8526H98.386V34.1685H101.27C104.769 34.1685 107.616 31.3233 107.616 27.8264C107.616 24.3295 104.769 21.4844 101.27 21.4844C97.7716 21.4844 94.9248 24.3295 94.9248 27.8264V30.7092H86.8485V27.8264C86.8485 24.3295 84.0018 21.4844 80.5029 21.4844C77.0041 21.4844 74.1573 24.3295 74.1573 27.8264C74.1573 31.3233 77.0041 34.1685 80.5029 34.1685H83.3873V46.8526H77.8433C65.2693 38.5288 63.6047 20.8243 74.2798 10.3029C89.205 -4.40742 114.63 6.29799 114.538 27.24C114.504 35.1585 110.541 42.4764 103.93 46.8526ZM98.3857 27.8267V30.7094H101.27C102.861 30.7094 104.154 29.4164 104.154 27.8267C104.154 26.237 102.861 24.9439 101.27 24.9439C99.6795 24.9439 98.3857 26.237 98.3857 27.8267Z" fill="#181C31"/>
</svg>
