<svg width="50" height="50" viewBox="0 0 50 50" fill="none" xmlns="http://www.w3.org/2000/svg">
<path fill-rule="evenodd" clip-rule="evenodd" d="M24.9487 0.00488281C31.6119 0.00488281 37.8747 2.60242 42.5873 7.31494C47.2998 12.0275 49.8973 18.2903 49.9076 24.9535C49.9076 27.2123 49.5996 29.4505 49.0041 31.6065C48.8193 32.2636 48.1417 32.6538 47.4846 32.4689C46.8275 32.2841 46.4374 31.6065 46.6222 30.9494C47.1561 29.009 47.4333 26.9967 47.4333 24.9535C47.4333 12.5511 37.3511 2.46895 24.9487 2.46895C12.5462 2.46895 2.46407 12.5511 2.46407 24.9535C2.46407 37.356 12.5462 47.4381 24.9487 47.4381C32.5462 47.4381 37.1355 44.5634 38.3162 41.7605C38.9528 40.2308 38.5934 38.7318 37.2793 37.4176L37.2177 37.356L37.2176 37.3561C37.1766 37.3971 37.1355 37.4382 37.1047 37.4792L37.0637 37.5203C36.0164 38.6599 34.6715 39.2349 33.0801 39.2349C32.9363 39.2349 32.7926 39.2349 32.6489 39.2246C30.3696 39.0706 28.347 38.2287 26.8378 37.51C22.9055 35.6106 19.4661 32.9104 16.6119 29.5018C14.2608 26.6681 12.6797 24.0193 11.6222 21.165C11.1807 19.9843 10.616 18.1774 10.77 16.2266C10.8727 14.9741 11.386 13.8858 12.269 13.0028L14.4764 10.7954L14.4969 10.7749C15.2156 10.087 16.0575 9.72768 16.9405 9.72768C17.8234 9.72768 18.655 10.087 19.3532 10.7749C19.7844 11.1753 20.1848 11.586 20.5749 11.9864C20.77 12.1917 20.9651 12.3868 21.1704 12.5922L22.9261 14.3478C24.4353 15.857 24.4353 17.8078 22.9261 19.317C22.8641 19.379 22.8021 19.4398 22.7405 19.5003C22.6184 19.6201 22.4979 19.7383 22.3819 19.8611C21.961 20.2924 21.5298 20.7338 21.0678 21.165C21.4374 21.9248 21.9302 22.6948 22.6489 23.5983C24.2813 25.6004 25.9856 27.1609 27.8645 28.3519C28.039 28.4648 28.2443 28.5675 28.4702 28.6804L28.4702 28.6804C28.5626 28.7215 28.6448 28.7626 28.7372 28.8139L30.5852 26.9659C31.3039 26.2472 32.1561 25.8673 33.0493 25.8673C33.9425 25.8673 34.7844 26.2575 35.4825 26.9761L39.0349 30.5285C40.4928 31.9864 40.4928 33.9679 39.0554 35.4772C39.0455 35.4871 39.0346 35.497 39.0232 35.5072C38.9993 35.5289 38.9737 35.552 38.9528 35.5798L39.0246 35.6517C41.037 37.664 41.6119 40.2205 40.5955 42.6743C39.7433 44.7174 37.8131 46.5552 35.154 47.8386C32.3511 49.1835 28.8193 49.9022 24.9487 49.9022C18.2854 49.9022 12.0226 47.3047 7.31006 42.5922C2.59754 37.8796 0 31.6168 0 24.9535C0 18.2903 2.59754 12.0275 7.31006 7.31494C12.0226 2.60242 18.2854 0.00488281 24.9487 0.00488281ZM33.0801 36.7503C33.9938 36.7503 34.6509 36.4731 35.2361 35.8468C35.6468 35.3642 36.078 34.9433 36.4887 34.5429L36.5091 34.5233C36.7785 34.2638 37.0284 34.0232 37.2587 33.7729L37.269 33.7626C37.7926 33.2184 37.7926 32.7564 37.2895 32.2533L33.7372 28.701L33.7166 28.6804C33.5626 28.5162 33.3162 28.3211 33.0493 28.3211C32.7618 28.3211 32.5051 28.5264 32.3306 28.701L30.1232 30.9084C29.7639 31.278 29.3429 31.4628 28.8912 31.4628C28.6242 31.4628 28.3573 31.4012 28.0903 31.2677L28.0903 31.2677C28.0492 31.2472 28.0082 31.2266 27.9774 31.2061C27.8029 31.0932 27.5975 30.9905 27.3717 30.8776C27.1047 30.7441 26.8275 30.6004 26.5503 30.4258C24.4456 29.0911 22.5462 27.3663 20.7392 25.1384L20.729 25.1281C19.7228 23.855 19.0657 22.7872 18.5934 21.6476C18.5883 21.6322 18.5832 21.6194 18.578 21.6065C18.5729 21.5937 18.5678 21.5809 18.5626 21.5655C18.5611 21.5604 18.5595 21.5552 18.5578 21.5498C18.4708 21.2683 18.2281 20.4831 18.9836 19.7277C18.9908 19.7204 18.9968 19.7131 19.0024 19.7063C19.0127 19.6939 19.0216 19.683 19.0349 19.6763C19.4775 19.2829 19.8874 18.8699 20.3115 18.4425C20.4187 18.3345 20.5268 18.2255 20.6366 18.1158L21.191 17.5614C21.7351 17.0172 21.7351 16.6168 21.191 16.0726L19.4353 14.317C19.3326 14.2143 19.23 14.1091 19.1273 14.0039C19.0246 13.8986 18.922 13.7934 18.8193 13.6907L18.8043 13.6753C18.4197 13.2805 18.0545 12.9058 17.6694 12.5511L17.6386 12.5203C17.4846 12.356 17.2382 12.1712 16.9507 12.1712C16.6632 12.1712 16.3963 12.3663 16.2218 12.5306L14.0144 14.7277C13.5318 15.2 13.2854 15.7441 13.2238 16.4115C13.1417 17.5408 13.3573 18.7318 13.9322 20.2924C14.8973 22.8796 16.345 25.2924 18.5113 27.9002C21.1396 31.0418 24.3018 33.5162 27.9055 35.2616C29.2094 35.8878 30.9548 36.6168 32.8029 36.74C32.8953 36.7503 32.9877 36.7503 33.0801 36.7503Z" fill="#FF4F21"/>
</svg>
