<svg width="104" height="118" viewBox="0 0 104 118" fill="none" xmlns="http://www.w3.org/2000/svg">
<path fill-rule="evenodd" clip-rule="evenodd" d="M101.692 47.6967H22.9465L98.5823 25.942C99.1702 25.7728 99.666 25.378 99.9618 24.8463C100.257 24.3136 100.328 23.687 100.157 23.1034L96.1994 9.53687C94.618 4.11833 89.5366 0.333496 83.8421 0.333496C82.6421 0.333496 81.4466 0.502686 80.2871 0.835693L9.27288 21.2611C5.98836 22.2055 3.26644 24.3736 1.6066 27.3644C-0.0523329 30.3552 -0.441823 33.799 0.509361 37.0592L4.37631 50.3133V104.913C4.37631 111.946 10.1384 117.667 17.2205 117.667H44.9554C46.2302 117.667 47.2634 116.641 47.2634 115.375C47.2634 114.109 46.2302 113.083 44.9554 113.083H17.2214C12.6836 113.083 8.99248 109.419 8.99248 104.913V73.7268H20.8169H20.8223H20.8268H38.902H38.9074H38.9129H56.9881H56.9935H56.9989H75.0741H75.0795H75.084H99.3838V104.913C99.3838 109.419 95.6927 113.083 91.155 113.083H63.4201C62.1461 113.083 61.112 114.109 61.112 115.375C61.112 116.641 62.1461 117.667 63.4201 117.667H91.155C98.2379 117.667 104 111.946 104 104.913V49.9884C104 48.7226 102.967 47.6967 101.692 47.6967ZM60.9922 69.1434L70.7989 52.2799H83.5537L73.748 69.1434H60.9922ZM52.7129 52.2799L42.9062 69.1434H55.662L65.4678 52.2799H52.7129ZM24.8229 69.1434L34.6287 52.2799H47.3845L37.5778 69.1434H24.8229ZM16.9818 23.816L33.4034 39.4763C33.5179 39.5855 33.6198 39.7046 33.7064 39.8299L46.0105 36.2913L29.5888 20.6309C29.4734 20.5208 29.3724 20.4027 29.2859 20.2773L16.9818 23.816ZM64.331 10.6375L80.7527 26.2978L68.4486 29.8364C68.362 29.7111 68.261 29.592 68.1456 29.4828L51.724 13.8225L64.028 10.2839C64.1146 10.4092 64.2156 10.5273 64.331 10.6375ZM63.3803 31.2943L46.9586 15.6348C46.8441 15.5247 46.7431 15.4057 46.6556 15.2812L34.3516 18.8199L50.7732 34.4802C50.8886 34.5894 50.9896 34.7085 51.0762 34.8338L63.3803 31.2943ZM81.5717 5.23804C82.3129 5.02498 83.0765 4.91667 83.842 4.91667C87.4943 4.91667 90.7518 7.34082 91.7652 10.8123L95.0813 22.1767L85.821 24.8398C85.7335 24.7145 85.6325 24.5964 85.5171 24.4862L69.0964 8.82682L81.5717 5.23804ZM10.5565 25.6637C8.4558 26.268 6.71302 27.6573 5.64913 29.5757C4.58525 31.495 4.33371 33.6998 4.94228 35.7847L8.25835 47.149L28.6371 41.2874L12.2155 25.627C12.101 25.5178 12 25.3988 11.9125 25.2734L10.5565 25.6637ZM8.99219 52.2799H29.297L19.4913 69.1434H8.99219V52.2799ZM88.8839 52.2799L79.0781 69.1434H99.383V52.2799H88.8839Z" fill="#181C31"/>
<path fill-rule="evenodd" clip-rule="evenodd" d="M69.4929 91.0032C70.2196 91.4148 70.6673 92.1758 70.6673 92.9999C70.6673 93.824 70.2196 94.585 69.4929 94.9966L48.8572 106.69C48.4939 106.896 48.0883 107 47.6828 107C47.2773 107 46.8717 106.896 46.5084 106.69C45.7817 106.279 45.334 105.518 45.334 104.694V81.3054C45.334 80.4813 45.7817 79.7203 46.5084 79.3087C47.2351 78.8971 48.1306 78.8971 48.8572 79.3087L69.4929 91.0032ZM50.0312 85.2988V100.701L63.6205 93L50.0312 85.2988Z" fill="#181C31"/>
<path d="M54 113.667C52.8984 113.667 52 114.565 52 115.667C52 116.769 52.8984 117.667 54 117.667C55.1023 117.667 56 116.769 56 115.667C56 114.565 55.1023 113.667 54 113.667Z" fill="#181C31"/>
</svg>
