<svg width="34" height="63" viewBox="0 0 34 63" fill="none" xmlns="http://www.w3.org/2000/svg">
<path d="M10.2541 62.7898C5.08861 54.7362 9.73588 50.6153 15.5041 45.5016C16.4068 44.7025 17.3204 43.8653 18.2095 43.0471C26.0395 35.8389 21.3704 31.7998 19.9768 27.9544C19.1859 25.7725 27.2722 21.6816 27.2722 21.6816C37.5322 32.4707 32.6777 40.6935 28.0032 46.0171C24.6104 49.8653 14.5304 58.9689 10.2541 62.7898Z" fill="#181C31"/>
<path d="M23.0835 0C28.2654 8.05364 23.6045 12.1718 17.8335 17.2882C16.9335 18.0873 16.0172 18.9245 15.1308 19.7427C7.30082 26.9564 11.9699 30.9955 13.3635 34.8409C14.1545 37.0227 6.06809 41.1136 6.06809 41.1136C-4.19191 30.3245 0.662636 22.1018 5.33718 16.7782C8.72718 12.9245 18.8181 3.81818 23.0835 0Z" fill="#181C31"/>
</svg>
