<svg xmlns="http://www.w3.org/2000/svg" viewBox="0 0 174.78 195.25"><defs><style>.cls-1{fill:#fff;}</style></defs><g id="Ebene_2" data-name="Ebene 2"><g id="Ebene_1-2" data-name="Ebene 1"><path class="cls-1" d="M109.3,23.66,99.05,19.31,102,20.58C104.43,21.64,106.86,22.71,109.3,23.66Z"/><path class="cls-1" d="M33.62,79.78h0Z"/><path class="cls-1" d="M52.69,113c.23,1.31.43,2.63.58,4A37,37,0,0,0,52.69,113Z"/><path class="cls-1" d="M72.31,10.6c-2.12-.46-4.27-.88-6.41-1.25A24,24,0,0,0,72.31,10.6Z"/><path class="cls-1" d="M127.22,60.49l-.15.55.38.38a6.09,6.09,0,0,1-.17-.61Z"/><path class="cls-1" d="M164.82,113.5a.88.88,0,0,0,0,.28C164.8,113.6,164.82,113.5,164.82,113.5Z"/><path class="cls-1" d="M116.16,58.78h0c0-1.07.07-2.14.07-3.22,0-.54,0-1.08,0-1.62l.11.11c.48.44.94.88,1.38,1.34a8.54,8.54,0,0,1,.63.72c.09.13.18.26.26.39a.9.9,0,0,1,.13.45,1.57,1.57,0,0,0-.2-1,9.09,9.09,0,0,0-.47-.87c-.35-.55-.73-1.08-1.12-1.61-.25-.34-.51-.67-.76-1C115.62,38.66,111.38,25,104,25a6.36,6.36,0,0,0-4,1.49c-.86-.49-1.71-.91-2.47-1.32-.27-.14-.5-.29-.73-.43a4.94,4.94,0,0,1-.57-.44l-.12-.11a.44.44,0,0,0-.08-.11l-.09-.1,0,0,0-.06-.09-.13a6.36,6.36,0,0,0-.77-.91,10.16,10.16,0,0,0-3.71-2.31A7.36,7.36,0,0,0,89,20.09a5.62,5.62,0,0,0-1.21.11,4.47,4.47,0,0,0-1.19.47,3.87,3.87,0,0,0-1,.84,4.47,4.47,0,0,0-.62,1l-.18.43c-.06.14-.11.28-.18.41s-.27.54-.43.8a23.35,23.35,0,0,1-5,5.67,19,19,0,0,0,1.71-.95c.55-.35,1.09-.73,1.61-1.13A16.45,16.45,0,0,0,85.42,25c.22-.26.4-.56.6-.84s.18-.29.28-.44l.13-.23c0-.07.09-.16.12-.2a2.61,2.61,0,0,1,.44-.57,1.86,1.86,0,0,1,.54-.37,2.7,2.7,0,0,1,1.35-.15,5.52,5.52,0,0,1,1.52.46,8.1,8.1,0,0,1,1.45.85,8.25,8.25,0,0,1,1.24,1.1,5.29,5.29,0,0,1,.44.59l0,.07,0,0,0,.07.19.28.21.28.22.24a7.3,7.3,0,0,0,.92.79c.3.21.61.42.9.59.6.37,1.17.67,1.72,1l.12.07a19.38,19.38,0,0,0-1.7,2.81l-.41-.15a16.66,16.66,0,0,0-2.71-.63,10.77,10.77,0,0,0-2.9-.07,7.68,7.68,0,0,0-2.93,1l-.35.2-.31.24a5,5,0,0,0-.62.5l-.55.55-.49.6a5,5,0,0,0-.44.62c-.13.21-.27.43-.39.64l-.34.66-.16.34-.14.33c-.17.44-.36.94-.49,1.3s-.29.78-.45,1.17a36.7,36.7,0,0,1-5.05,8.71,19.94,19.94,0,0,1-1.64,1.87l-.44.4c-.17.15-.36.3-.52.45-.34.31-.67.62-1,.94a37.48,37.48,0,0,0-3.49,4.07c1.5-1,2.94-2,4.4-2.95.37-.24.73-.48,1.09-.7l.55-.32c.19-.13.42-.26.61-.4a13.91,13.91,0,0,0,1.12-.87l.52-.47.5-.48a27.91,27.91,0,0,0,6-9.16c.18-.42.33-.86.48-1.3s.29-.79.43-1.18c0-.09.06-.19.1-.28l.12-.26.24-.53c.08-.18.18-.33.27-.5a3.76,3.76,0,0,1,.3-.47,5.66,5.66,0,0,1,3.42-2.46A10,10,0,0,1,93,32.55a21.25,21.25,0,0,1,2.52.11l.13,0a48.14,48.14,0,0,0-3.17,11.93,4.08,4.08,0,0,0-.66-.9,3.07,3.07,0,0,0-2.45-1c.07.28.14.53.19.77a42.56,42.56,0,0,1-2.79,3.8,27,27,0,0,1-3.43,3.57,14.74,14.74,0,0,1-1.92,1.38c-.69.38-1.44.73-2.21,1.07-1.54.66-3.15,1.28-4.76,2A25.61,25.61,0,0,0,69.71,58a13.94,13.94,0,0,0-2.11,1.9A10.22,10.22,0,0,0,66,62.32c-.09.22-.21.46-.28.67l-.23.66-.22.65-.18.64c-.11.43-.24.86-.35,1.29l-.3,1.28c-.21.86-.36,1.71-.53,2.57s-.31,1.71-.46,2.57c-.07.43-.15.85-.21,1.28l-.17,1.29c-.11.86-.25,1.72-.33,2.59l-.28,2.58L62.23,83l-.11,1.29-.07,1.3-.13,2.6-.07,2.6,0,1.3c0,.43,0,.87,0,1.3l0,2.6c0,.44,0,.87,0,1.3l.06,1.3c.05.87.07,1.74.13,2.61l.22,2.59.1,1.3c0,.44.11.87.16,1.3l.32,2.59.08.65.11.64.21,1.29c.15.86.28,1.72.44,2.57l.56,2.56c.19.85.37,1.71.59,2.54.43,1.66.85,3.33,1.3,5,.87,3.33,1.79,6.65,2.73,10,1.87,6.63,4,13.18,6,19.72.5,1.64,1,3.27,1.47,4.9s.86,3.3,1.3,5,.91,3.34,1.44,5S80.26,172,81,173.61a31.28,31.28,0,0,0,5.48,8.85,17.68,17.68,0,0,0,4,3.32,15.88,15.88,0,0,0,4.79,1.92,15.49,15.49,0,0,1-4.59-2.22A18.14,18.14,0,0,1,86.94,182a26.38,26.38,0,0,1-2.78-4.23,38.34,38.34,0,0,1-2.08-4.62,73.12,73.12,0,0,1-2.79-9.8c-.37-1.66-.7-3.35-1.11-5s-.85-3.35-1.32-5l-2.8-9.91-1.37-5Q72,136,71.35,133.49c-.88-3.31-1.75-6.63-2.56-10-.42-1.66-.81-3.33-1.21-5-.22-.84-.38-1.66-.56-2.48l-.53-2.48a114.79,114.79,0,0,1-1.76-20.22c0-.42,0-.84,0-1.27l0-1.27,0-2.55.13-2.54L65,84.47l.09-1.27c.22-3.39.62-6.77,1.12-10.12.13-.84.24-1.68.4-2.51s.28-1.66.47-2.48l.27-1.23c.09-.4.2-.8.31-1.2l.15-.6.19-.57.18-.56c.06-.2.14-.34.2-.52A9,9,0,0,1,71.23,60,22.23,22.23,0,0,1,75,57.78a3.68,3.68,0,0,1-.22,2.62l-1,.8a33.6,33.6,0,0,0-3.58,3.68,22.48,22.48,0,0,0-2.75,4.31,22.72,22.72,0,0,1,3-4.07,37.61,37.61,0,0,1,3.74-3.4c.88-.69,1.79-1.33,2.72-2a35.5,35.5,0,0,1,8.92-.07,3.62,3.62,0,0,0-.32.22,4,4,0,0,0-.62.55,2.8,2.8,0,0,0-.29.37,2,2,0,0,0-.25.48,3.18,3.18,0,0,0-.09.33s0,.1,0,.16h0l-.49.05H83.6a.31.31,0,0,1-.13,0,.68.68,0,0,1-.19,0,1.06,1.06,0,0,1-.23,0c-.32-.08-.7-.2-1.09-.34s-.8-.31-1.22-.48c-.21-.08-.42-.18-.64-.28l-.31-.16-.16-.11-.14-.14a1,1,0,0,0-.08.21,1.5,1.5,0,0,0,0,.22,2.22,2.22,0,0,0,0,.45,4.53,4.53,0,0,0,.27.81,5.47,5.47,0,0,0,.93,1.36,5.13,5.13,0,0,0,1.37,1,4.48,4.48,0,0,0,.44.2l.44.13c-1.44,2.42-4.19,7.71-4.31,13l4.65-12.93.29,0h.32l.21,0A5,5,0,0,0,85,64.6l.26-.08.19-.08A4,4,0,0,0,86.59,66a4.08,4.08,0,0,0-1.51,3A27.59,27.59,0,0,0,80.2,83.56l5-13.57a4.09,4.09,0,0,0,1.25,2.22,4.1,4.1,0,0,0,.29,6.29,4.1,4.1,0,0,0-.1,6.45,4.09,4.09,0,0,0,.1,6.44,4.1,4.1,0,0,0,0,6.53,4.12,4.12,0,0,0-1.62,3.27,4.08,4.08,0,0,0,1.52,3.18,4.09,4.09,0,0,0-.19,6.2,4.1,4.1,0,0,0,.29,6.29,4.09,4.09,0,0,0-.1,6.44,4.1,4.1,0,0,0-.79,5.52l-.21,1.26c.16-.31.31-.62.46-.94a3.58,3.58,0,0,0,.26.29,4.1,4.1,0,0,0,.38,6.2,4.1,4.1,0,0,0-.1,6.45,4.08,4.08,0,0,0-1.52,3.18,4.12,4.12,0,0,0,1.33,3,4.09,4.09,0,0,0,.29,6.28,4.12,4.12,0,0,0-1.62,3.27A4.08,4.08,0,0,0,86.59,161a4.11,4.11,0,1,0,5.18,0,4.09,4.09,0,0,0-.11-6.45,4.07,4.07,0,0,0,.29-6.28,4.08,4.08,0,0,0-.18-6.2,4.13,4.13,0,0,0,1.52-3.19,4.08,4.08,0,0,0-1.63-3.26,4.08,4.08,0,0,0,.38-6.2,4.09,4.09,0,0,0,1.25-2.94,4.14,4.14,0,0,0-1.52-3.19,4.08,4.08,0,0,0-.11-6.44,4.08,4.08,0,0,0,.29-6.29,4.08,4.08,0,0,0-.18-6.2,4.09,4.09,0,0,0-.11-6.45,4.09,4.09,0,0,0,0-6.53A4.08,4.08,0,0,0,91.77,85a4.13,4.13,0,0,0,1.52-3.19,4.08,4.08,0,0,0-1.63-3.26A4.08,4.08,0,0,0,92,72.21a4,4,0,0,0,1.18-1.9C95,79.25,98.68,86.13,104,86.13c7.14,0,11.34-12.64,12.14-25.92a19.2,19.2,0,0,1,2.8-.16A7.6,7.6,0,0,0,116.16,58.78ZM89.18,166A1.77,1.77,0,1,1,91,164.19,1.77,1.77,0,0,1,89.18,166Zm0-6.36A1.77,1.77,0,1,1,91,157.83,1.77,1.77,0,0,1,89.18,159.6Zm0-6.53A1.77,1.77,0,1,1,91,151.3,1.77,1.77,0,0,1,89.18,153.07Zm0-6A1.77,1.77,0,1,1,91,145.26,1.77,1.77,0,0,1,89.18,147Zm0-6.37A1.77,1.77,0,1,1,91,138.89,1.77,1.77,0,0,1,89.18,140.66Zm0-6.53A1.77,1.77,0,1,1,91,132.36,1.77,1.77,0,0,1,89.18,134.13Zm0-5.87A1.77,1.77,0,1,1,91,126.49,1.77,1.77,0,0,1,89.18,128.26Zm0-6.37A1.77,1.77,0,1,1,91,120.12,1.77,1.77,0,0,1,89.18,121.89Zm0-6.53A1.77,1.77,0,1,1,91,113.59,1.77,1.77,0,0,1,89.18,115.36Zm0-6A1.77,1.77,0,1,1,91,107.55,1.77,1.77,0,0,1,89.18,109.32Zm0-6.36A1.77,1.77,0,1,1,91,101.19,1.77,1.77,0,0,1,89.18,103Zm0-6.53A1.77,1.77,0,1,1,91,94.66,1.77,1.77,0,0,1,89.18,96.43Zm0-6.53A1.77,1.77,0,1,1,91,88.13,1.77,1.77,0,0,1,89.18,89.9Zm0-6.37A1.77,1.77,0,1,1,91,81.76,1.77,1.77,0,0,1,89.18,83.53Zm0-6.53A1.77,1.77,0,1,1,91,75.23,1.77,1.77,0,0,1,89.18,77Zm0-6A1.77,1.77,0,1,1,91,69.19,1.77,1.77,0,0,1,89.18,71Zm0-6.36A1.77,1.77,0,1,1,91,62.83,1.77,1.77,0,0,1,89.18,64.6Zm0-6.53A1.77,1.77,0,1,1,91,56.3,1.77,1.77,0,0,1,89.18,58.07Zm20.56,17.26c-1.66,4.57-3.83,7.29-5.79,7.29s-4.13-2.72-5.8-7.29c-1.92-5.25-3-12.27-3-19.77s1-14.51,3-19.76c1.67-4.57,3.84-7.29,5.8-7.29s4.13,2.72,5.79,7.29c1.92,5.25,3,12.27,3,19.76S111.66,70.08,109.74,75.33Z"/><path class="cls-1" d="M67.94,133.82c-.07-.81-.17-1.63-.31-2.44-.69,3.2-1.27,6.35-1.91,9.48-.32,1.56-.65,3.11-1,4.65s-.72,3.08-1.14,4.59a55.33,55.33,0,0,1-3.08,8.81,19.46,19.46,0,0,1-5.6,7.41,11.16,11.16,0,0,0,4.34-2.44A18.54,18.54,0,0,0,62.51,160a32.67,32.67,0,0,0,3.89-9.16c.22-.8.4-1.6.59-2.41s.32-1.61.44-2.42c.26-1.62.45-3.25.56-4.88s.14-3.26.09-4.89C68.05,135.45,68,134.63,67.94,133.82Z"/><path class="cls-1" d="M53.31,110.78l-.12-.69c0-.22-.08-.46-.13-.69l-.17-.68c-.06-.23-.1-.46-.18-.69l-.22-.68-.22-.65c-.05-.19-.13-.37-.17-.58a22.21,22.21,0,0,1-.47-2.53c-.12-.87-.18-1.75-.26-2.63-.25-3.54-.28-7.13-.23-10.71,0-1.79.07-3.59.15-5.37s.16-3.58.29-5.36.28-3.56.5-5.32c.11-.87.22-1.74.39-2.58,0-.22.08-.42.12-.63l.07-.31.07-.29.17-.67.09-.38.07-.36a26.08,26.08,0,0,0,.36-2.83c.08-.93.11-1.85.14-2.77.06-1.83,0-3.65,0-5.47-.08-3.64-.28-7.26-.58-10.88s-.66-7.22-1.19-10.81c-.21,7.25-.25,14.48-.52,21.67-.07,1.79-.16,3.58-.29,5.36q-.09,1.34-.24,2.64a24.52,24.52,0,0,1-.4,2.54l-.07.3-.07.28-.18.64-.1.36-.09.35c-.05.24-.11.47-.15.7,0,0,0,.08,0,.12,0-.6,0-1.2,0-1.8,0-.81-.12-1.61-.18-2.42,0-.41-.07-.81-.11-1.21l-.16-1.21c-.12-.8-.22-1.6-.36-2.4a54.39,54.39,0,0,0-2.57-9.37c-.15-.38-.3-.75-.44-1.13s-.32-.75-.49-1.12-.32-.74-.51-1.1l-.54-1.09a25.88,25.88,0,0,0-2.6-4.11c.9,3.11,1.68,6.16,2.38,9.22S45.4,59.57,46,62.65c.14.77.26,1.55.39,2.32l.2,1.16c.06.39.11.78.17,1.16.12.78.23,1.56.36,2.33s.2,1.56.31,2.34l.18,1.17c.06.39.09.79.14,1.18.1.78.2,1.57.32,2.36.18,1.35.33,2.71.56,4.09q-.12,2-.18,4c0,1.82-.06,3.64,0,5.47s.09,3.65.21,5.47c.08,1.45.22,2.9.39,4.35-.21-.63-.41-1.26-.62-1.88l-.8-2.29a36.19,36.19,0,0,0-.32-6c-.25-2.06-.6-4.1-1-6.13a46.77,46.77,0,0,0-1.63-6.08c-.1-.26-.21-.52-.31-.77L44,76.19c-.18-.44-.35-.89-.5-1.35A28.26,28.26,0,0,1,42.73,72c-.4-1.93-.65-3.92-.86-5.93l-.31-3-.11-.81c0-.27-.11-.52-.16-.78-.1-.53-.25-1-.39-1.54s-.33-1-.49-1.49-.35-1-.55-1.45-.39-1-.6-1.42l-.32-.71-.33-.69a52.1,52.1,0,0,0-3-5.38c.39.94.78,1.89,1.14,2.84s.72,1.9,1,2.86a42.12,42.12,0,0,1,1.62,5.8c.09.49.19,1,.24,1.46,0,.24.07.48.08.72l0,.71.08,3.06a52.71,52.71,0,0,0,.52,6.21,26.89,26.89,0,0,0,.67,3.13c.15.51.31,1,.5,1.54l.14.38.07.19.06.16c.07.22.15.44.23.66a49.88,49.88,0,0,1,1.36,5.76q.55,3,.9,5.93A36.38,36.38,0,0,1,44.64,96l0,.32.09.26c.6,1.71,1.2,3.38,1.78,5.06s1.12,3.37,1.63,5.06A87.05,87.05,0,0,1,50.56,117a50.1,50.1,0,0,1,.77,10.52,30.78,30.78,0,0,1-2.14,10.37,26.69,26.69,0,0,0,3.5-10.25,38.66,38.66,0,0,0,.36-5.89,36.42,36.42,0,0,0,.54-4.78,33.89,33.89,0,0,0-.19-5.51Zm-1.17,1.64a37.4,37.4,0,0,1,.58,4C52.57,115.05,52.37,113.74,52.14,112.42Z"/><path class="cls-1" d="M77,65.12c-.87,1.6-1.8,3.22-2.69,4.85-.45.82-.88,1.64-1.3,2.49a21.15,21.15,0,0,0-1.13,2.68c0,.13-.07.27-.11.4s0,.13,0,.21l0,.25c0,.08,0,.19,0,.24v.53l0,1.39c0,.93,0,1.86-.05,2.79,0,3.72.08,7.45.33,11.18.14,1.86.3,3.73.55,5.59,0,.47.12.94.2,1.41s.14.93.23,1.4l.27,1.4c.1.47.2.92.3,1.37l1.25,5.41c.42,1.79.79,3.55,1,5.31a47.62,47.62,0,0,1,.38,5.37l0,1.36,0,1.46c.08,1,.16,1.91.29,2.84.25,1.88.59,3.72,1,5.54.2.92.42,1.82.65,2.73s.46,1.8.72,2.7c.51,1.79,1,3.57,1.65,5.33s1.22,3.51,2,5.21c-.22-.9-.43-1.8-.62-2.71s-.39-1.8-.57-2.71c-.36-1.81-.73-3.62-1-5.44s-.62-3.63-.88-5.45c-.13-.91-.24-1.81-.35-2.72-.05-.45-.09-.91-.14-1.36s-.08-.9-.11-1.35c-.08-.91-.11-1.8-.12-2.69v-1.32l0-1.41a43.89,43.89,0,0,0-.21-5.72l-.06-.47c.42-1.72.75-3.33,1.07-4.95s.65-3.37.9-5.07.49-3.41.64-5.15a35,35,0,0,0,.11-5.34,15.62,15.62,0,0,0-1.35,2.38,25.19,25.19,0,0,0-1,2.48,30,30,0,0,0-1.29,5.18,29.27,29.27,0,0,0-.33,3.86l-.88-3.93c-.1-.45-.21-.9-.3-1.34L75.77,100c-.08-.44-.15-.89-.23-1.34L75.43,98l-.09-.67c-.28-1.79-.46-3.62-.65-5.43s-.32-3.66-.46-5.49-.24-3.67-.34-5.51l-.13-2.76-.06-1.38v-.52c0-.06,0-.07,0-.1V76a.6.6,0,0,1,0-.12,1.37,1.37,0,0,1,.05-.28,19.24,19.24,0,0,1,.83-2.5c.32-.85.68-1.7,1-2.55L76.71,68c.36-.86.73-1.69,1.06-2.58a8.84,8.84,0,0,0,.56-2.82,7.39,7.39,0,0,0-.12-1.41,4.37,4.37,0,0,0-.46-1.33,5.8,5.8,0,0,1,.14,2.71A8.26,8.26,0,0,1,77,65.12Z"/><path class="cls-1" d="M118.06,75.72l-.31.54-.16.27-.13.24-.26.48c-.33.65-.69,1.29-1,1.93-.7,1.28-1.41,2.55-2.14,3.81s-1.48,2.52-2.26,3.77-1.61,2.49-2.35,3.82a35.62,35.62,0,0,0,3.46-2.92,33.6,33.6,0,0,0,3.05-3.37,43.48,43.48,0,0,0,2.63-3.7c.4-.64.79-1.29,1.17-1.94l.28-.49.14-.25.12-.21.25-.42.28-.4A16.64,16.64,0,0,1,127,71.77,33.25,33.25,0,0,1,131,70.05c1.37-.5,2.78-1,4.24-1.35a14.36,14.36,0,0,0-2.27-.16,19.41,19.41,0,0,0-2.29.12,21,21,0,0,0-4.52,1,17,17,0,0,0-4.24,2.11,13.74,13.74,0,0,0-3.49,3.44Z"/><path class="cls-1" d="M104.17,161.94a11.35,11.35,0,0,1-1.41-3.64,37.59,37.59,0,0,1-.73-8c0-2.69.11-5.39.3-8.09.1-1.35.21-2.7.34-4s.26-2.7.42-4c.59-5.41,1.34-10.78,2.12-16.21.37-2.73.66-5.48.77-8.25a41.23,41.23,0,0,0,0-4.16c0-.7-.12-1.39-.23-2.08-.08-.35-.14-.69-.25-1a2.3,2.3,0,0,0-.46-.94,2.4,2.4,0,0,1,.24,1c0,.34,0,.68,0,1,0,.68-.06,1.36-.14,2-.14,1.35-.36,2.69-.58,4-.47,2.68-1,5.34-1.61,8a153.25,153.25,0,0,0-2.77,16.28c-.15,1.38-.28,2.75-.39,4.13s-.18,2.76-.23,4.15a70.45,70.45,0,0,0,.17,8.34c.12,1.39.3,2.78.55,4.16.14.69.29,1.38.46,2.07s.4,1.36.64,2a11.48,11.48,0,0,0,2.15,3.72,5.78,5.78,0,0,0,1.72,1.31,4.62,4.62,0,0,0,2,.44A4.87,4.87,0,0,1,104.17,161.94Z"/><path class="cls-1" d="M108.36,156.57a10.78,10.78,0,0,1-1.09-2.66c-.08-.23-.13-.48-.19-.72l-.09-.36-.06-.37c-.11-.49-.18-1-.26-1.51-.27-2-.4-4.14-.48-6.28l-.13-3.25c0-.55,0-1.1-.08-1.66s-.07-1.12-.15-1.68a24.61,24.61,0,0,0-1.93,6.45,23.64,23.64,0,0,0-.12,6.83c.09.57.18,1.15.33,1.73l.11.43.13.43a7.11,7.11,0,0,0,.29.85,9.77,9.77,0,0,0,1.89,3.16,6.69,6.69,0,0,0,3.15,2,6.56,6.56,0,0,0,3.49,0,10.09,10.09,0,0,1-2.89-1.31A6.52,6.52,0,0,1,108.36,156.57Z"/><path class="cls-1" d="M142.61,133.1l-.11.09-.14.09-.27.19c-.72.52-1.45,1-2.18,1.53s-1.46,1-2.2,1.46-1.48.94-2.23,1.38-1.51.84-2.27,1.21c-.38.18-.76.34-1.15.49a8.75,8.75,0,0,1-1.13.37,5.24,5.24,0,0,1-1.06.16h-.23l-.23,0-.63-.15c-.84-.21-1.72-.47-2.66-.65a9.94,9.94,0,0,0-1.44-.18,6.45,6.45,0,0,0-1.46.12,5.8,5.8,0,0,0-2.54,1.19,6.58,6.58,0,0,1,2.6-.38,7.22,7.22,0,0,1,2.43.63c.8.32,1.59.73,2.46,1.09.21.1.44.19.66.27l.43.13a3.25,3.25,0,0,0,.43.08,6.43,6.43,0,0,0,1.64,0,13,13,0,0,0,2.87-.75,26.57,26.57,0,0,0,2.6-1.15c.84-.43,1.64-.89,2.44-1.37s1.56-1,2.32-1.5,1.51-1.06,2.24-1.61l.27-.21.14-.1.15-.13a8,8,0,0,0,.61-.55,8.43,8.43,0,0,0,1-1.22,11.05,11.05,0,0,0,1.36-2.73A16.13,16.13,0,0,0,148,128a23.92,23.92,0,0,0,.13-5.6,25.37,25.37,0,0,0-1-5.41c-.07,1.83-.19,3.62-.39,5.39a32.78,32.78,0,0,1-.94,5.15,12.58,12.58,0,0,1-2,4.39,7.33,7.33,0,0,1-.75.81C142.89,132.89,142.74,133,142.61,133.1Z"/><path class="cls-1" d="M141.26,122.63a1.7,1.7,0,0,1-.29.31l-.3.28-.41.38a20.6,20.6,0,0,0-2.55,3.37,3.62,3.62,0,0,1-1.06,1,1.83,1.83,0,0,1-.3.18l-.33.15-.38.12a2,2,0,0,1-.39.1,7,7,0,0,1-.84.15,8.8,8.8,0,0,1-.91.08l-.46,0-.49,0-1,0c-1.37.08-2.75.19-4.12.39a31.88,31.88,0,0,0-4.07.82,17.49,17.49,0,0,0-2,.69,5.34,5.34,0,0,0-1.79,1.11,4.17,4.17,0,0,1,1-.22,4.1,4.1,0,0,1,.49-.06l.5,0c.67,0,1.34-.05,2-.05,1.34,0,2.68,0,4,0l4,.1,1,0h1.08c.36,0,.75,0,1.12-.08s.77-.12,1.16-.19a4.83,4.83,0,0,0,.59-.17c.2-.07.39-.12.59-.2a6.88,6.88,0,0,0,1.16-.63,6.42,6.42,0,0,0,1.75-1.87c.41-.67.7-1.28,1-1.85a11.12,11.12,0,0,1,1-1.54l.65-.85a6.24,6.24,0,0,0,.59-1,6,6,0,0,0,.52-2.26,7.2,7.2,0,0,0-.28-2.19,6.74,6.74,0,0,0-.89-1.92,8.9,8.9,0,0,1-.25,3.88,3.12,3.12,0,0,1-.15.43,2.43,2.43,0,0,1-.18.4c-.07.13-.13.26-.2.38l-.24.36A4.15,4.15,0,0,1,141.26,122.63Z"/><path class="cls-1" d="M132.81,118.47a8.31,8.31,0,0,1-1.71.93,3.75,3.75,0,0,1-.47.17l-.47.17c-.39.13-.77.26-1.16.42a14.83,14.83,0,0,0-2.23,1.09,20.29,20.29,0,0,0-2,1.38c-.6.47-1.17.91-1.8,1.35s-1.3.86-2,1.37a9.11,9.11,0,0,0,2.5,0,10.77,10.77,0,0,0,2.41-.69c.76-.3,1.44-.63,2.12-.91s1.35-.58,2-.85l1-.41.62-.28a3.8,3.8,0,0,0,.6-.31l.58-.36c.19-.13.37-.28.55-.43l.26-.22c.08-.08.17-.16.25-.25s.32-.33.46-.52a5.17,5.17,0,0,0,.93-5A7.11,7.11,0,0,1,132.81,118.47Z"/><path class="cls-1" d="M120.7,111.9c.3-.16.61-.31.87-.43s.28-.09.41-.14.27-.08.41-.1a7.14,7.14,0,0,1,.88-.1c.66,0,1.44-.06,2.21-.15a17.71,17.71,0,0,0,2.29-.41c.37-.09.74-.19,1.1-.3s.73-.22,1.09-.35a16.15,16.15,0,0,0,2.18-.89,7.49,7.49,0,0,0,1.13-.71,3.76,3.76,0,0,0,1.1-1.24,3.05,3.05,0,0,0,.32-.92,3.27,3.27,0,0,0,0-.87,6.62,6.62,0,0,0-.25-1.27,6.44,6.44,0,0,1-.29-1.77,3.56,3.56,0,0,1,.1-.84l.12-.46.15-.42a3.1,3.1,0,0,1,1-1.39,4.27,4.27,0,0,1,1.76-.73c.68-.14,1.42-.22,2.15-.32a13,13,0,0,0-2.18-.49,4.3,4.3,0,0,0-3,.6c-.19.13-.36.27-.54.41s-.32.31-.46.48a6.28,6.28,0,0,0-.38.52l-.33.55-.26.57a5.76,5.76,0,0,0-.38,1.26,6.07,6.07,0,0,0-.08,1.34c0,.43.08.85.13,1.21a4.8,4.8,0,0,1,.09.88c0,.2,0,.24-.09.3a1.67,1.67,0,0,1-.37.32,5,5,0,0,1-.74.41,15,15,0,0,1-1.84.71q-.49.18-1,.33c-.32.11-.65.2-1,.29a19.2,19.2,0,0,1-2,.46c-.67.13-1.33.2-2.11.33a7.79,7.79,0,0,0-1.25.3c-.21.07-.42.17-.63.25s-.39.2-.57.31a9,9,0,0,0-1,.7c-.3.24-.6.49-.88.74-.56.51-1.08,1-1.58,1.6a19.37,19.37,0,0,0-1.4,1.74c-.22.31-.42.62-.61,1-.09.16-.18.33-.26.5a1.52,1.52,0,0,0-.16.54,3.23,3.23,0,0,1,.76-.76c.27-.23.56-.44.85-.66q.87-.63,1.77-1.23c.59-.4,1.19-.78,1.78-1.14Z"/><path class="cls-1" d="M133.13,81.7a6.84,6.84,0,0,0-1.47.86,11.09,11.09,0,0,0-1.19,1.06c-.37.38-.67.74-1,1.11s-.63.75-.93,1.14c-.59.77-1.15,1.56-1.68,2.38s-1,1.67-1.47,2.53c-.23.44-.44.87-.65,1.32s-.35.8-.53,1.24c-.22.28-.43.57-.65.86s-.54.71-.8,1.07l-1.44,2-1.23.55-1.56.74c-.52.25-1,.51-1.55.78s-1,.55-1.53.85c.58-.06,1.16-.13,1.73-.22s1.15-.18,1.72-.27l1.7-.33c.56-.11,1.12-.24,1.68-.36l.19,0,.27-.26c.63-.63,1.26-1.26,1.88-1.91.31-.31.61-.64.91-1s.61-.64.91-1l.1-.11.12-.25c.17-.36.39-.78.6-1.17s.43-.8.66-1.19c.44-.79.92-1.57,1.4-2.34.24-.38.48-.77.74-1.15l.76-1.13.8-1.11c.27-.37.54-.74.8-1.07a7.17,7.17,0,0,1,1.69-1.63,3,3,0,0,1,2.07-.45,24.16,24.16,0,0,1,2.67.56,12.7,12.7,0,0,0,2.88.37c-.88-.4-1.7-.85-2.51-1.31a15.32,15.32,0,0,0-2.66-1.31,5.35,5.35,0,0,0-1.69-.27A4.74,4.74,0,0,0,133.13,81.7Z"/><path class="cls-1" d="M56.25,193c-.67-1.48-1.41-2.94-2.15-4.39-1.47-2.9-3.1-5.73-4.3-8.67l-.22-.55-.2-.55c-.14-.37-.23-.73-.34-1.1-.17-.75-.33-1.52-.43-2.31-.22-1.56-.34-3.16-.42-4.77C48,167.44,48,164.21,48,161c0-1.62,0-3.24.07-4.86l.08-4.86c.05-3.24.13-6.49.15-9.76,0-1.63,0-3.28-.13-5s-.34-3.33-.6-5c-.55-3.26-1.28-6.47-2.12-9.64s-1.8-6.3-2.89-9.41c-.27-.78-.56-1.56-.86-2.33l-.88-2.27-1.78-4.53c-.58-1.5-1.17-3-1.68-4.51a14,14,0,0,1-.61-2.13c-.11-.73-.2-1.54-.27-2.33-.16-1.6-.29-3.22-.43-4.83l-.41-4.85c-.14-1.62-.26-3.23-.43-4.87,0-.21,0-.41-.07-.64l0-.17V79a.31.31,0,0,0,0-.11,1.91,1.91,0,0,0-.1-.34c0-.09-.07-.15-.1-.23s-.15-.24-.22-.35-.14-.2-.21-.3a5.37,5.37,0,0,0-.41-.51c-.54-.66-1.1-1.25-1.63-1.85a45.89,45.89,0,0,1-3.06-3.68,23,23,0,0,1-1.31-2A20.34,20.34,0,0,1,27,67.58a12.2,12.2,0,0,1-.72-2.19A8.59,8.59,0,0,1,26,63.13a13.38,13.38,0,0,1,.38-2.31,12.32,12.32,0,0,0,.24-1.21c.06-.41.15-.81.18-1.23a22.57,22.57,0,0,0,.08-4.93A18.2,18.2,0,0,0,26.53,51a11.7,11.7,0,0,0-.77-2.32,12.83,12.83,0,0,1,.55,2.36,17.75,17.75,0,0,1,.17,2.41A21.87,21.87,0,0,1,26,58.26c-.06.39-.17.78-.26,1.17s-.19.77-.3,1.15a13.13,13.13,0,0,0-.56,2.47A9.29,9.29,0,0,0,25,65.63a12.4,12.4,0,0,0,.65,2.48A21.77,21.77,0,0,0,28,72.57a47.07,47.07,0,0,0,3,4c.51.63,1,1.26,1.51,1.87.11.15.24.31.33.45a1.91,1.91,0,0,1,.14.21c0,.06.08.13.09.16l0,0h0v.21c0,.17,0,.38.05.57.1,1.6.17,3.23.25,4.85.16,3.24.3,6.49.56,9.75.06.82.13,1.64.25,2.51a8.93,8.93,0,0,0,.29,1.35c.11.42.24.82.36,1.22.51,1.58,1.07,3.11,1.63,4.65s1.14,3,1.71,4.57l.86,2.27c.28.75.55,1.49.81,2.25,1,3,2,6.12,2.78,9.22s1.56,6.23,2.1,9.37c.27,1.57.5,3.14.62,4.7s.15,3.16.19,4.77c.1,6.45,0,13,.19,19.49.1,3.25.23,6.52.55,9.79.16,1.63.36,3.26.67,4.9a23.58,23.58,0,0,0,.59,2.45c.14.41.27.83.44,1.21l.24.59.26.56c.72,1.5,1.55,2.92,2.38,4.32s1.69,2.79,2.54,4.17c1.22,2,2.39,4.05,3.48,6.14l.33.11C56.9,194.49,56.59,193.74,56.25,193Z"/><path class="cls-1" d="M174.77,99.69a6,6,0,0,0-.13-1,8.81,8.81,0,0,0-1.52-3.17,23,23,0,0,0-4.31-4.24,14.63,14.63,0,0,0-4.15-4.11c-1.66-1.1-3.39-1.92-5-2.79a13.36,13.36,0,0,1-4-3.05l-.2-.23-.21-.25-.46-.58-.23-.29-.24-.27-.48-.55c-.64-.71-1.3-1.4-2-2.06a69.26,69.26,0,0,0-8.76-7.2,48.21,48.21,0,0,0-4.89-3l-1.32-.61c-.44-.2-.91-.37-1.37-.55a7.36,7.36,0,0,0-.71-.22l-.73-.2-.32-.08-.3-.08-.6-.19a14.18,14.18,0,0,1-4.43-2.73c-.41-.36-.81-.74-1.2-1.12a8.35,8.35,0,0,1-.06-1,4.78,4.78,0,0,1,.29-1.84,2.64,2.64,0,0,1,.2-.37.91.91,0,0,0,.11-.16l.14-.13.18-.18c.08-.08.14-.16.2-.23a4.58,4.58,0,0,0,.33-.48,11.12,11.12,0,0,0,.84-2,23.26,23.26,0,0,0,.91-4,18,18,0,0,0,.18-2.09c0-.35,0-.71,0-1.09a6.36,6.36,0,0,0-.15-1.17,3.72,3.72,0,0,0-.22-.67c-.1-.22-.19-.38-.29-.57s-.39-.63-.59-.92-.4-.56-.6-.84l-.61-.81c-.81-1.08-1.65-2.12-2.47-3.16s-1.65-2.07-2.44-3.11a38,38,0,0,1-2.2-3.11c-.64-1-1.17-2.22-1.81-3.45a19.23,19.23,0,0,0-1.1-1.86,9.45,9.45,0,0,0-1.55-1.75,8.22,8.22,0,0,0-2-1.28l-.56-.2-.28-.1-.28-.07-1-.25-.42-.1-.45-.14c-.3-.1-.6-.18-.9-.3l-.91-.33-.92-.35c-2.43-1-4.87-2-7.31-3.08L98.5,18.76l-.73-.32-1.84-.79L94.4,17c-.42-.51-.86-1-1.34-1.51a10.51,10.51,0,0,0-4.18-2.72,7.25,7.25,0,0,0-2.58-.34,9.49,9.49,0,0,0-2,.31,7.36,7.36,0,0,0-1.06-.84,15.31,15.31,0,0,0-1.51-.86,28.83,28.83,0,0,0-3.1-1.32c-2.09-.76-4.2-1.38-6.33-2-1.06-.28-2.13-.55-3.2-.8s-2.14-.48-3.22-.7c-2.16-.44-4.32-.81-6.52-1.11L57.71,5,57,4.86a5.4,5.4,0,0,1-.72-.13l-.7-.16-.65-.22a6.64,6.64,0,0,1-1.19-.6c-.19-.12-.38-.27-.57-.41l-.63-.49c-.23-.18-.44-.36-.7-.53A7.11,7.11,0,0,0,51,1.81a6.9,6.9,0,0,0-.85-.45A7.9,7.9,0,0,0,49.3,1L48.42.72l-.88-.2A23,23,0,0,0,44.1.08C43.52,0,43,0,42.41,0l-.85,0-.88,0a16.73,16.73,0,0,0-1.75.15l-.86.14c-.29,0-.57.09-.85.16-.56.13-1.12.24-1.67.41l-.82.23-.81.26A47,47,0,0,0,27.72,4a64.56,64.56,0,0,0-5.8,3.28,75.89,75.89,0,0,0-10.52,8C10.58,16,9.78,16.77,9,17.58S7.5,19.2,6.79,20.05a28.22,28.22,0,0,0-2,2.7l-.44.73c-.14.25-.26.51-.4.76-.25.5-.46,1-.7,1.49-.39.86-.81,1.7-1.21,2.55a3.78,3.78,0,0,1-.39,1.19,3.8,3.8,0,0,1-.37.79,6.44,6.44,0,0,1-.49,1.23,16.45,16.45,0,0,1-.78,2c.35-.5.7-1,1-1.51,1.19-1.84,2.25-3.76,3.32-5.66.27-.47.53-.95.8-1.41.14-.21.27-.44.41-.65L6,23.59a29.33,29.33,0,0,1,2-2.42,57,57,0,0,1,4.7-4.35A80.43,80.43,0,0,1,23.27,9.45,57.3,57.3,0,0,1,34.8,4.1l.74-.23.76-.2c.5-.14,1-.24,1.5-.35.25-.06.51-.1.76-.14s.5-.09.75-.12c.5,0,1-.13,1.5-.13l.74,0,.79,0c.53,0,1.06,0,1.57.07a20.93,20.93,0,0,1,3,.36l.71.16.67.22A4.08,4.08,0,0,1,49,4a4.8,4.8,0,0,1,.6.3,5.25,5.25,0,0,1,.58.38c.19.12.4.29.6.44l.67.51c.25.17.49.36.76.52a9.63,9.63,0,0,0,3.52,1.34,6.85,6.85,0,0,0,.89.14l.87.11L59,7.89c2.1.24,4.2.55,6.3.91s4.29.78,6.42,1.24S76,11,78,11.67c1,.33,2,.66,3,1.07a13.4,13.4,0,0,1,1.37.67,4.24,4.24,0,0,1,1.06.79l.4.49.54-.21a7,7,0,0,1,4.2-.4,9.16,9.16,0,0,1,3.88,2.14,34.65,34.65,0,0,1,3.28,3.35c.53.6,1.06,1.19,1.63,1.75a11.4,11.4,0,0,0,.89.81,5.6,5.6,0,0,0,1,.63,6.93,6.93,0,0,1-1.7-1.63c-.5-.61-1-1.25-1.43-1.89s-1-1.34-1.51-2l1.14.8,1.67,1.11c1.11.74,2.24,1.45,3.39,2.15,2.29,1.38,4.61,2.71,7,3.9a27.11,27.11,0,0,0,3.86,1.62l.92.28.2.06.19.08.37.16a5.55,5.55,0,0,1,1.3.89,8.3,8.3,0,0,1,1,1.27c.31.49.6,1,.89,1.59.57,1.14,1.11,2.4,1.86,3.64a34.5,34.5,0,0,0,2.44,3.38c.85,1.06,1.7,2.09,2.57,3.1l2.6,3c.43.5.85,1,1.24,1.5.21.25.38.49.55.72s.15.22.2.3a2.54,2.54,0,0,1,.11.26,7,7,0,0,1,.17.8c0,.29.07.6.09.91,0,.62,0,1.26,0,1.9a25.88,25.88,0,0,1-.38,3.83,11.15,11.15,0,0,1-.48,1.81,2.7,2.7,0,0,1-.17.38l-.1.17-.06.07-.09.13-.18.25-.13.27a3.92,3.92,0,0,0-.18.55,5,5,0,0,0,0,1.8c0,.11,0,.22,0,.33s.11.4.17.61l-.38-.39q-1-1-1.89-2.07c-.61-.7-1.21-1.41-1.83-2.11-.32-.36-.64-.71-1-1a10,10,0,0,0-1.14-1,3,3,0,0,1-.74-.85,9.66,9.66,0,0,1-.62-1.15,23.34,23.34,0,0,1-1-2.54c-.56-1.74-1-3.54-1.45-5.34s-.82-3.62-1.21-5.43l-.6-2.73c-.1-.46-.19-.91-.32-1.36l-.19-.69-.22-.66a8.88,8.88,0,0,0-1.3-2.5,4,4,0,0,0-.47-.53A3.32,3.32,0,0,0,112,30a2.33,2.33,0,0,0-1.32-.43,2.25,2.25,0,0,1,1.27.5,3.9,3.9,0,0,1,.93,1,8.5,8.5,0,0,1,1.11,2.5l.18.66.14.68c.1.45.17.91.25,1.36l.46,2.75a107.27,107.27,0,0,0,2.18,11,24.64,24.64,0,0,0,.91,2.71,9.7,9.7,0,0,0,.65,1.34,4.16,4.16,0,0,0,1,1.27,13.79,13.79,0,0,1,1.82,1.9c.58.7,1.16,1.43,1.75,2.16a39.8,39.8,0,0,0,3.84,4.2,16.08,16.08,0,0,0,4.91,3.24c.24.1.48.18.72.26l.37.1.36.11.61.19a4.69,4.69,0,0,1,.6.2c.41.17.82.32,1.22.51l1.19.6a42.61,42.61,0,0,1,4.57,2.93,67.21,67.21,0,0,1,8.3,7.14c.64.64,1.26,1.3,1.85,2l.44.51.21.26.2.25.4.52.23.29.25.31a12.76,12.76,0,0,0,1.06,1.14c.19.19.39.34.59.51s.39.33.59.47l.61.44c.21.15.42.27.63.41.41.27.83.5,1.25.75l2.05,1.13a29.91,29.91,0,0,1,2.67,1.6,3.4,3.4,0,0,1,.3.23h-1c-1.8,0-3.79.08-5.71.22l-.72-.05a33.77,33.77,0,0,0-3.77,0l-1,.08c-.33,0-.67.11-1,.17l-.54.15-.26.08-.21.07-.86.31c-.58.21-1.17.42-1.79.68a6.8,6.8,0,0,0-1,.49,4.1,4.1,0,0,0-1,.81,5.86,5.86,0,0,0-.69.95,6.79,6.79,0,0,0-.51,1,5.42,5.42,0,0,0-.34,2.42,7.28,7.28,0,0,0,.53,2.16,13.3,13.3,0,0,0,.9,1.86,21.11,21.11,0,0,0,2.37,3.17,24.7,24.7,0,0,0,2.81,2.69c.18.15.37.29.57.43a3.57,3.57,0,0,0-2.66.18,4.33,4.33,0,0,1,2.23,1.16,5.34,5.34,0,0,1,1.17,1.92l.1.26c0,.09.06.19.08.28s.13.37.17.56c.07.4.17.75.28,1.24a17,17,0,0,0,.84,2.72,11.87,11.87,0,0,0,1.4,2.62,7.71,7.71,0,0,0,1,1.2,5.23,5.23,0,0,0,.83.64l0,.16c-.17.58-.34,1.15-.52,1.73-.3.93-.6,1.85-.93,2.77-.67,1.83-1.36,3.64-2.18,5.39a40.07,40.07,0,0,1-2.75,5,19.36,19.36,0,0,1-3.59,4.22l-.07.06-.09.12c-2.61,3.43-5.3,6.77-8.16,9.94a94.83,94.83,0,0,1-9.14,8.91,67.11,67.11,0,0,1-10.39,7.28,56.93,56.93,0,0,1-11.63,5l-.55.16-.2.47a6.53,6.53,0,0,1-1.64,2.13,13.84,13.84,0,0,1-2.39,1.72,14.14,14.14,0,0,1-2.73,1.2,10.4,10.4,0,0,1-2.9.51,5.35,5.35,0,0,1-2.76-.6,7.23,7.23,0,0,1-2.26-1.91,20.53,20.53,0,0,1-1.69-2.64,6.69,6.69,0,0,0-.94-1.33,2.16,2.16,0,0,0-.67-.48,1.47,1.47,0,0,0-.8-.07,1.37,1.37,0,0,1,.75.18,2,2,0,0,1,.55.52,7.53,7.53,0,0,1,.72,1.38,19.46,19.46,0,0,0,1.41,2.91,7.75,7.75,0,0,0,2.34,2.43l.37.22.39.21.41.17.42.15a7.77,7.77,0,0,0,1.72.31,11.66,11.66,0,0,0,3.39-.32,15.84,15.84,0,0,0,3.18-1.13,13.47,13.47,0,0,0,1.48-.82,11.41,11.41,0,0,0,1.4-1,9.19,9.19,0,0,0,2-2.22s1.86-.48,3.1-.7a28.08,28.08,0,0,0,4.43-1.8c4.2-2.08,10.48-5.2,12.07-6,2.45-1.31,9.47-7,13.22-10.29s5.39-5.87,8.66-7.51,8.32-20.24,8.32-20.24v.39a5.46,5.46,0,0,1,3.33-3c.71-.22,1.42-.45,2.13-.7.13-.07.28-.13.41-.21a5.22,5.22,0,0,1,1.86-.61,6.52,6.52,0,0,0,.51-.55,11.15,11.15,0,0,0,1-1.39,15.3,15.3,0,0,0,1.3-3,12.31,12.31,0,0,0,.61-3.26,7.56,7.56,0,0,0-.14-1.81c0-.16-.09-.34-.14-.51a15.3,15.3,0,0,0,3.65-3.62,17.19,17.19,0,0,0,1.61-2.77c.23-.48.43-1,.62-1.42s.38-.93.56-1.46a8.46,8.46,0,0,0,.4-1.75,11.53,11.53,0,0,0,0-1Zm-10.56,13.53c-.13,1.39.47,6.28-4.19,8.53,2.84-2.55,3.95-7.33,4.19-8.53a1.3,1.3,0,0,1,0-.28A2.67,2.67,0,0,1,164.21,113.22Zm-2.4-1.59s2-4.57,1.31-6.85a6.12,6.12,0,0,1,.23-3.56c0-.12.05-.23.08-.34a3,3,0,0,0,0-1.16c-.33-1.47-2-.82-4.08-1s-2,2.12-2.29,3.92c-.06.33-.09.64-.12,1,0,.11,0,.22,0,.33-.06,1.27.09,2.45-.08,3.89-.21,1.9-3.29-.36-3.29-.36,1.49.42,1.89-1.37,1.87-2.88,0-.1,0-.21,0-.31a6.19,6.19,0,0,0-.14-1.13c-.33-1.31,2.61-4.9,3.91-5.88s5.59-.65,5.91,3a.68.68,0,0,1,0,.15.91.91,0,0,1,0,.17C165.25,104.45,161.81,111.63,161.81,111.63Zm9.72-15.44-1.23,3.69c1-3.43-4.08-4.41-15.34-6,4.23-1.06,14.33,1.38,16.33,2l.32.11Z"/></g></g></svg>