<svg width="50" height="37" viewBox="0 0 50 37" fill="none" xmlns="http://www.w3.org/2000/svg">
<path fill-rule="evenodd" clip-rule="evenodd" d="M49.4085 0.770854C49.7747 1.173 50 1.70536 50 2.29076V33.9084C50 34.4938 49.7747 35.0262 49.4085 35.4283L49.4032 35.4343L49.3984 35.4395L49.3909 35.4477C48.9776 35.8913 48.3903 36.1709 47.7376 36.1709H2.26244C1.60894 36.1709 1.02093 35.8906 0.607579 35.4461L0.601006 35.4389C0.597836 35.4356 0.594672 35.4322 0.591742 35.4287C0.225453 35.0265 0 34.4939 0 33.9084V2.29076C0 1.70558 0.225226 1.17334 0.591176 0.771194C0.594475 0.767356 0.597964 0.763613 0.601458 0.759864L0.610633 0.749813C1.02387 0.307166 1.61052 0.0283203 2.26244 0.0283203H47.7376C48.3903 0.0283203 48.9776 0.307845 49.3909 0.75151L49.3987 0.759965L49.3988 0.760136C49.4021 0.763682 49.4054 0.767216 49.4085 0.770854ZM9.49106 24.6999C9.92376 24.2492 10.6399 24.2347 11.0905 24.6673C11.5411 25.1 11.5557 25.8162 11.123 26.2668L3.78563 33.9084H46.2144L32.6032 19.733L27.3829 25.1697C26.7508 25.828 25.9045 26.1907 25 26.1907C24.0955 26.1907 23.2492 25.8281 22.6171 25.1697L17.3968 19.733L13.7959 23.4832C13.5738 23.7145 13.2769 23.8309 12.9798 23.8309C12.698 23.8309 12.4157 23.7262 12.1965 23.5157C11.7458 23.083 11.7312 22.3668 12.1639 21.9162L15.8285 18.0996L2.26244 3.97097V32.2282L9.49106 24.6999ZM25.751 23.6028C25.5495 23.8126 25.2828 23.9282 25 23.9282C24.7172 23.9282 24.4506 23.8126 24.249 23.6028L3.78563 2.29076H46.2143L25.751 23.6028ZM47.7376 3.97097L34.1715 18.0996L47.7378 32.2285L47.7376 3.97097Z" fill="#FF4F21"/>
</svg>
