<svg width="106" height="106" viewBox="0 0 106 106" fill="none" xmlns="http://www.w3.org/2000/svg">
<path fill-rule="evenodd" clip-rule="evenodd" d="M70.1676 97.9006C69.3022 98.259 68.4044 98.4288 67.5212 98.4288C64.7966 98.429 62.2068 96.8146 61.1011 94.1452C60.3926 92.4347 60.3935 90.5487 61.1032 88.835C61.8132 87.1212 63.1462 85.7871 64.8567 85.0787C66.5672 84.37 68.4532 84.3711 70.1667 85.0807C71.8805 85.7906 73.2146 87.1236 73.923 88.8341C75.3872 92.369 73.7025 96.4364 70.1676 97.9006ZM66.5183 89.0852C65.878 89.3506 65.3786 89.8509 65.112 90.4945C64.8455 91.1379 64.8447 91.8448 65.1099 92.4847C65.6589 93.8103 67.1841 94.4425 68.5099 93.8932C69.8355 93.3441 70.4672 91.8188 69.9181 90.4932C69.6529 89.8531 69.1524 89.3537 68.509 89.0871C68.1866 88.9536 67.8478 88.8868 67.5098 88.8868C67.1734 88.8868 66.8377 88.9529 66.5183 89.0852Z" fill="#181C31"/>
<path fill-rule="evenodd" clip-rule="evenodd" d="M34.5506 88.8322C35.8821 85.2965 39.5804 83.6119 42.7945 85.0761C46.0085 86.5406 47.5404 90.6086 46.2091 94.1443C45.2037 96.8143 42.8487 98.4288 40.3717 98.4288C39.5684 98.4288 38.7523 98.259 37.9652 97.9005C34.7511 96.436 33.2193 92.368 34.5506 88.8322ZM39.4763 93.8926C40.6818 94.4413 42.0685 93.8097 42.5677 92.4838C42.8091 91.8436 42.8083 91.1363 42.5658 90.4928C42.3235 89.8493 41.8696 89.3487 41.2873 89.0834C40.082 88.5345 38.6953 89.1663 38.1959 90.4921C37.955 91.1324 37.9555 91.8397 38.1979 92.4832C38.4402 93.1267 38.8941 93.6273 39.4763 93.8926Z" fill="#181C31"/>
<path fill-rule="evenodd" clip-rule="evenodd" d="M2.07032 0H103.93C105.073 0 106 0.92685 106 2.07025V65.4198C106 66.5632 105.073 67.4901 103.93 67.4901H66.2348L62.1033 77.4651L62.1575 77.4409L62.2218 77.4118C62.2922 77.3798 62.3626 77.3478 62.4345 77.318C66.1079 75.7963 70.1587 75.7982 73.8409 77.3235C77.523 78.8487 80.3887 81.7114 81.9104 85.3849C83.4319 89.0581 83.43 93.109 81.9048 96.7909C80.3796 100.473 77.5168 103.339 73.8432 104.86C72.0089 105.62 70.08 106 68.1505 106C66.2156 106 64.2802 105.618 62.4366 104.855C58.7545 103.329 55.8888 100.466 54.3671 96.7932L54.2319 96.4669L54.1065 96.7696C52.5848 100.443 49.7191 103.306 46.037 104.831C44.1936 105.594 42.2579 105.976 40.3233 105.976C38.3934 105.976 36.4649 105.596 34.6304 104.837C30.957 103.315 28.094 100.449 26.5688 96.7673C25.0436 93.0854 25.0415 89.0345 26.5632 85.3613C29.7086 77.768 38.446 74.1497 46.0391 77.2944C46.1054 77.3219 46.1703 77.3514 46.2352 77.3809L46.2362 77.3813C46.2728 77.398 46.3096 77.4147 46.3465 77.431L42.2289 67.4901H2.07032C0.926881 67.4901 0 66.5632 0 65.4198V43.0611C0 41.9178 0.926881 40.9909 2.07032 40.9909C3.21375 40.9909 4.14063 41.9178 4.14063 43.0611V46.7876H50.9298V20.7025H4.14063V24.4289C4.14063 25.5723 3.21375 26.4992 2.07032 26.4992C0.926881 26.4992 0 25.5723 0 24.4289V2.07025C0 0.92685 0.926881 0 2.07032 0ZM89.0234 16.5621H101.859V4.14062H89.0234V16.5621ZM38.0938 4.14062H50.9297V16.5621H38.0938V4.14062ZM21.1172 16.5621H33.9532V4.14062H21.1172V16.5621ZM55.0703 4.14062H67.9063V16.5621H55.0703V4.14062ZM84.8828 4.14062H72.0469V16.5621H84.8828V4.14062ZM4.14062 4.14062H16.9766V16.5621H4.14062V4.14062ZM101.859 20.7027H55.0703V46.7878H61.3651L62.6483 43.6899C62.8858 43.1168 63.3675 42.6804 63.9611 42.5007C64.5546 42.321 65.1977 42.4169 65.713 42.762C67.3022 43.8261 68.5742 45.2142 69.493 46.7878H101.859V20.7027ZM51.9921 80.2379L65.3417 48.0104C67.1 50.2951 67.5841 53.4168 66.4346 56.1914L54.233 85.6479L51.9921 80.2379ZM55.0703 50.9279V61.9838L59.6499 50.9279H55.0703ZM50.9297 63.3494H38.0938V50.9279H50.9297V63.3494ZM21.1172 63.3494H33.9532V50.9279H21.1172V63.3494ZM4.14062 50.9279H16.9766V63.3494H4.14062V50.9279ZM49.7504 74.8282L52.7898 67.4904H46.711L49.7504 74.8282ZM44.4524 101.006C41.7919 102.107 38.8667 102.109 36.215 101.011C30.7308 98.7394 28.117 92.4297 30.3888 86.9456C31.4871 84.2941 33.5572 82.2271 36.2173 81.1251C38.8779 80.0231 41.8032 80.0213 44.4547 81.1196C49.9392 83.3912 52.5527 89.7009 50.2812 95.185C49.1827 97.8364 47.1128 99.9035 44.4524 101.006ZM68.1248 80.3236C66.7543 80.3236 65.362 80.5867 64.019 81.143C58.5347 83.4147 55.9209 89.7244 58.1927 95.2087C59.291 97.8602 61.3609 99.9274 64.0213 101.029C66.6816 102.131 69.6068 102.133 72.2586 101.035C74.9101 99.9365 76.9773 97.8667 78.0793 95.2064C79.1812 92.5461 79.1832 89.6209 78.0849 86.9693C76.3697 82.828 72.3514 80.3236 68.1248 80.3236ZM70.2587 57.7752C71.1799 55.5511 71.4021 53.1789 71.0087 50.9279H84.8828V63.3494H67.9498L70.2587 57.7752ZM89.0234 50.9279V63.3494H101.859V50.9279H89.0234Z" fill="#181C31"/>
<circle cx="1.89286" cy="33.4407" r="1.89286" fill="#181C31"/>
</svg>
