<svg width="35" height="46" viewBox="0 0 35 46" fill="none" xmlns="http://www.w3.org/2000/svg">
<path fill-rule="evenodd" clip-rule="evenodd" d="M0 17.25C0 7.73662 7.73662 0 17.25 0C26.7634 0 34.5 7.73662 34.5 17.25C34.5 29.2071 18.929 44.9161 18.2677 45.5802C17.986 45.8591 17.618 46 17.25 46C16.882 46 16.514 45.8591 16.2323 45.5802C15.571 44.9161 0 29.2071 0 17.25ZM2.875 17.25C2.875 26.3839 13.8173 38.8096 17.25 42.4839C20.6828 38.8096 31.625 26.3752 31.625 17.25C31.625 9.32363 25.1764 2.875 17.25 2.875C9.32363 2.875 2.875 9.32363 2.875 17.25Z" fill="#FF4F21"/>
<path fill-rule="evenodd" clip-rule="evenodd" d="M8.625 17.25C8.625 12.4948 12.4948 8.625 17.25 8.625C22.0052 8.625 25.875 12.4948 25.875 17.25C25.875 22.0052 22.0052 25.875 17.25 25.875C12.4948 25.875 8.625 22.0052 8.625 17.25ZM11.5 17.25C11.5 20.4211 14.0789 23 17.25 23C20.4211 23 23 20.4211 23 17.25C23 14.0789 20.4211 11.5 17.25 11.5C14.0789 11.5 11.5 14.0789 11.5 17.25Z" fill="#FF4F21"/>
</svg>
